# xmcd
#
# Track frame offsets: 
#        180
#        17565
#        38863
#        58228
#        77815
#        92503
#        114030
#        126735
#        138885
#        162473
#        191050
#        210725
#        231673
#
# Disc length: 3341 seconds
#
# Revision: 2
# Processed by: cddbd v1.5.2PL0 Copyright (c) Steve Scherf et al.
# Submitted via: ExactAudioCopy v0.99pb5
#
DISCID=b70d0b0d
DTITLE=Алексей Козлов - Ностальгия
DYEAR=1995
DGENRE=Jazz
TTITLE0=Больше, чем ты думаешь (More Than You Know)
TTITLE1=Облака (Clouds)
TTITLE2=Около полуночи ('Round Midnight)
TTITLE3=Самба Джойса (Joyce's Samba)
TTITLE4=Туманно (Misty)
TTITLE5=Корковадо (Corcovado)
TTITLE6=Каждый раз, когда мы прощаемся (Every Time We Say Goodbye)
TTITLE7=Минья Саудад (Minha Saudade)
TTITLE8=Незнакомка (She's A Stranger)
TTITLE9=Однажды я любил (Once I Loved)
TTITLE10=Где-то (Somewhere)
TTITLE11=Цветение лотоса (Lotus Blossom)
TTITLE12=Ностальгия (Nostalgie)
EXTD=YEAR: 1996
EXTT0=
EXTT1=
EXTT2=
EXTT3=
EXTT4=
EXTT5=
EXTT6=
EXTT7=
EXTT8=
EXTT9=
EXTT10=
EXTT11=
EXTT12=
PLAYORDER=
